<svg xmlns="http://www.w3.org/2000/svg" version="1.1" xmlns:xlink="http://www.w3.org/1999/xlink" xmlns:svgjs="http://svgjs.dev/svgjs" width="1000" height="156" viewBox="0 0 1000 156"><g transform="matrix(1,0,0,1,-0.6060606060606233,-0.2019992208885384)"><svg viewBox="0 0 396 62" data-background-color="#ffffff" preserveAspectRatio="xMidYMid meet" height="156" width="1000" xmlns="http://www.w3.org/2000/svg" xmlns:xlink="http://www.w3.org/1999/xlink"><g id="tight-bounds" transform="matrix(1,0,0,1,0.2400000000000091,0.08028174163518997)"><svg viewBox="0 0 395.52 61.83943651672961" height="61.83943651672961" width="395.52"><g><svg viewBox="0 0 484.1467861987348 75.69620866180048" height="61.83943651672961" width="395.52"><g transform="matrix(1,0,0,1,0,10.461632311435523)"><svg viewBox="0 0 395.52 54.77294403892944" height="54.77294403892944" width="395.52"><g><svg viewBox="0 0 395.52 54.77294403892944" height="54.77294403892944" width="395.52"><g><svg viewBox="0 0 395.52 54.77294403892944" height="54.77294403892944" width="395.52"><g transform="matrix(1,0,0,1,0,0)"><svg width="395.52" viewBox="4.85 -33.55 246.58 34.15" height="54.77294403892944" data-palette-color="#f5ba41"><path d="M7.15 0L4.85 0 4.85-32.95 7.15-32.95 7.15 0ZM34.35 0L16.85 0 16.85-32.95 19.15-32.95 19.15-2 34.35-2 34.35 0ZM57.7 0L40.2 0 40.2-32.95 42.5-32.95 42.5-2 57.7-2 57.7 0ZM73.29 0.6L73.29 0.6Q71.19 0.6 69.19-0.03 67.19-0.65 65.64-2.18 64.09-3.7 63.17-6.25 62.24-8.8 62.24-12.65L62.24-12.65 62.24-32.95 64.54-32.95 64.54-12.9Q64.54-9.6 65.27-7.43 65.99-5.25 67.19-3.93 68.39-2.6 69.97-2.05 71.54-1.5 73.29-1.5L73.29-1.5Q75.09-1.5 76.72-2.05 78.34-2.6 79.57-3.93 80.79-5.25 81.54-7.43 82.29-9.6 82.29-12.9L82.29-12.9 82.29-32.95 84.44-32.95 84.44-12.65Q84.44-8.8 83.49-6.25 82.54-3.7 80.99-2.18 79.44-0.65 77.44-0.03 75.44 0.6 73.29 0.6ZM96.19 0L94.04 0 94.04-32.95 97.29-32.95 104.19-13.6Q104.84-11.8 105.49-9.98 106.14-8.15 106.79-6.3L106.79-6.3 106.99-6.3Q107.64-8.15 108.24-9.98 108.84-11.8 109.49-13.6L109.49-13.6 116.34-32.95 119.64-32.95 119.64 0 117.39 0 117.39-21.65Q117.39-23.7 117.49-26.08 117.59-28.45 117.69-30.55L117.69-30.55 117.49-30.55 114.94-23.2 107.84-3.6 105.84-3.6 98.69-23.2 96.09-30.55 95.89-30.55Q95.99-28.45 96.09-26.08 96.19-23.7 96.19-21.65L96.19-21.65 96.19 0ZM131.64 0L129.34 0 129.34-32.95 131.64-32.95 131.64 0ZM150.74 0L148.44 0 148.44-30.95 137.94-30.95 137.94-32.95 161.24-32.95 161.24-30.95 150.74-30.95 150.74 0ZM170.08-19.4L170.08-19.4 167.98-13.25 179.68-13.25 177.58-19.4Q176.58-22.35 175.68-25.05 174.78-27.75 173.93-30.8L173.93-30.8 173.73-30.8Q172.88-27.75 171.98-25.05 171.08-22.35 170.08-19.4ZM163.38 0L161.08 0 172.68-32.95 174.98-32.95 186.58 0 184.18 0 180.33-11.3 167.28-11.3 163.38 0ZM203.03 0.6L203.03 0.6Q199.98 0.6 197.43-0.6 194.88-1.8 193.06-4.03 191.23-6.25 190.23-9.43 189.23-12.6 189.23-16.55L189.23-16.55Q189.23-20.45 190.26-23.6 191.28-26.75 193.13-28.98 194.98-31.2 197.56-32.38 200.13-33.55 203.28-33.55L203.28-33.55Q206.18-33.55 208.38-32.35 210.58-31.15 211.88-29.6L211.88-29.6 210.53-28.05Q209.18-29.6 207.38-30.53 205.58-31.45 203.33-31.45L203.33-31.45Q200.63-31.45 198.46-30.4 196.28-29.35 194.76-27.43 193.23-25.5 192.43-22.75 191.63-20 191.63-16.55L191.63-16.55Q191.63-13.1 192.43-10.33 193.23-7.55 194.73-5.6 196.23-3.65 198.36-2.58 200.48-1.5 203.13-1.5L203.13-1.5Q205.68-1.5 207.68-2.53 209.68-3.55 211.48-5.55L211.48-5.55 212.83-4.1Q210.93-1.9 208.58-0.65 206.23 0.6 203.03 0.6ZM221.83 0L219.53 0 219.53-32.95 221.83-32.95 221.83 0ZM240.93 0L238.63 0 238.63-30.95 228.13-30.95 228.13-32.95 251.43-32.95 251.43-30.95 240.93-30.95 240.93 0Z" opacity="1" transform="matrix(1,0,0,1,0,0)" fill="#ffffff" class="undefined-text-0" data-fill-palette-color="primary" id="text-0"></path></svg></g></svg></g></svg></g></svg></g><g transform="matrix(1,0,0,1,408.4505775369343,0)"><svg viewBox="0 0 75.69620866180048 75.69620866180048" height="75.69620866180048" width="75.69620866180048"><g data-palette-color="#f5ba41"><rect width="20.690297034225466" height="75.69620866180048" fill="#ffffff" stroke="transparent" data-fill-palette-color="accent" x="0" fill-opacity="0.5"></rect><rect width="20.690297034225466" height="75.69620866180048" fill="#ffffff" stroke="transparent" data-fill-palette-color="accent" x="25.232069553933496" fill-opacity="0.75"></rect><rect width="20.690297034225466" height="75.69620866180048" fill="#ffffff" stroke="transparent" data-fill-palette-color="accent" x="50.46413910786699" fill-opacity="1"></rect></g></svg></g></svg></g><defs></defs></svg><rect width="395.52" height="61.83943651672961" fill="none" stroke="none" visibility="hidden"></rect></g></svg></g></svg>
